<?xml version="1.0" standalone="no"?>
<!DOCTYPE svg PUBLIC "-//W3C//DTD SVG 20010904//EN"
 "http://www.w3.org/TR/2001/REC-SVG-20010904/DTD/svg10.dtd">
<svg version="1.0" xmlns="http://www.w3.org/2000/svg"
 width="700.000000pt" height="700.000000pt" viewBox="0 0 700.000000 700.000000"
 preserveAspectRatio="xMidYMid meet">
<metadata>
Created by potrace 1.11, written by Peter Selinger 2001-2013
</metadata>
<g transform="translate(0.000000,700.000000) scale(0.100000,-0.100000)"
fill="#000000" stroke="none">
<path d="M966 4543 c210 -241 266 -347 576 -1087 82 -198 214 -521 292 -719
78 -199 146 -362 151 -364 6 -1 99 215 207 482 l197 484 -267 645 -267 646
-483 0 -483 0 77 -87z"/>
<path d="M2720 3693 c0 -522 -4 -974 -10 -1020 -11 -101 -33 -146 -104 -211
-31 -28 -56 -53 -56 -56 0 -3 251 -6 558 -6 l557 0 -63 61 c-36 34 -73 81 -85
107 l-22 47 0 900 0 900 23 50 c14 30 47 72 85 108 l62 57 -473 0 -472 0 0
-937z"/>
<path d="M4050 4622 c0 -5 -18 -183 -40 -398 -22 -214 -40 -390 -40 -391 0 -2
10 -3 23 -3 19 0 29 12 53 62 152 325 467 570 872 679 65 18 82 26 82 41 0 17
-20 18 -475 18 -261 0 -475 -4 -475 -8z"/>
<path d="M4642 3532 c-363 -604 -664 -1106 -668 -1115 -6 -16 23 -17 431 -15
l437 3 635 1085 c349 597 641 1097 649 1113 l15 27 -419 0 -418 0 -662 -1098z"/>
<path d="M6146 3152 c-118 -233 -343 -455 -581 -575 -77 -38 -224 -92 -294
-108 -94 -21 -121 -30 -121 -43 0 -11 82 -15 443 -21 243 -4 460 -5 482 -3
l40 3 46 345 c25 190 49 369 53 398 7 51 6 52 -18 52 -21 0 -31 -10 -50 -48z"/>
<path d="M1060 3068 c-53 -154 -117 -299 -171 -392 -54 -92 -143 -210 -174
-230 -14 -9 -25 -23 -25 -31 0 -13 56 -15 418 -15 230 0 422 3 425 6 4 4 -25
40 -63 81 -114 122 -213 303 -306 561 -25 70 -49 131 -53 135 -5 4 -27 -47
-51 -115z"/>
</g>
</svg>
