<?xml version="1.0" encoding="utf-8"?>
<!-- Generator: Adobe Illustrator 21.1.0, SVG Export Plug-In . SVG Version: 6.00 Build 0)  -->
<svg version="1.1" id="Layer_1" xmlns="http://www.w3.org/2000/svg" xmlns:xlink="http://www.w3.org/1999/xlink" x="0px" y="0px"
	 viewBox="0 0 138 554.5" style="enable-background:new 0 0 138 554.5;" xml:space="preserve">
<style type="text/css">
	.st0{fill:#9A7A6F;}
</style>
<g>
	<path class="st0" d="M30.9,93.8v-8.4l91.8-27.6L30.9,30.1V22L135.6,0v7.2L42,26.9l92,27.6v6.9L42,89.2l93.7,19.4v7.2L30.9,93.8z"/>
	<path class="st0" d="M30.9,187.2h48.3c12.9,0,20.5-5.6,20.5-19.1c0-18.2-16-24.5-31.9-24.5H30.9v-7.4h106.7v7.4H91.2
		c9.5,4.1,15.5,14.6,15.5,25c0,17-10.5,26-27,26H30.9V187.2z"/>
	<path class="st0" d="M15.1,241C5.5,237.3,0,231.1,0,221c0-5.9,1.3-9.3,1.3-9.3h6.2c0,0-0.9,5.2-0.9,9c0,7.1,4.6,10.9,10.9,13.4
		l12.1,4.7l75.1-30.3v8l-65.6,25.9l65.6,24.8v8L15.1,241z"/>
	<path class="st0" d="M29,359.9c0-25.1,17.3-37.1,40.3-37.1h66.3v7.7H69.1c-18.2,0-32.8,8.9-32.8,29.4c0,20.5,14.6,29.6,32.8,29.6
		h66.5v7.7H69.3C46.2,397.2,29,385,29,359.9z"/>
	<path class="st0" d="M37.8,473.5c-5.9-5.3-8.9-14.2-8.9-23.9c0-10,3.1-18.6,9.5-24.2c4.7-4.1,8.9-5.9,14.9-6.2v7.5
		c-4.4,0.4-8.3,2.4-11.4,5.5c-4.1,4.3-5.9,10.3-5.9,17.4c0,7.7,1.8,13.7,5.5,17.4c2.7,2.7,5.2,4,9.5,4c6.6,0,12.3-4.7,13.4-13.6
		l1.9-14.3c0.7-6.1,2.7-12.6,7.4-16.7c3.1-2.7,6.9-4.1,11.7-4.1c5.9,0,10.8,2.5,14.3,6.4c4.9,5.3,6.9,12.6,6.9,20.2
		c0,8.9-2.8,17.3-8.7,22.3c-4,3.4-8.9,5.5-13.6,5.6v-7.4c2.4-0.3,6.1-1.3,8.9-3.7c4-3.4,6.5-9.2,6.5-16.8c0-5.8-1-10-3.4-13.3
		c-2.7-3.7-6.2-5.8-10.2-5.8c-6.2,0-10.9,3.1-12.4,14.3l-1.9,14c-1.9,13.9-11.4,20.4-20.4,20.4C46,478.6,41.5,476.8,37.8,473.5z"/>
	<path class="st0" d="M84.7,538.9c-6.5-10.2-10.9-12.1-23-12.1v-7.7c15.4,0,21.3,3.8,29.8,16.5c4.7,7.1,10.9,10.6,19.1,10.6
		c12.3,0,19.9-8.9,19.9-21.4c0-15.2-8.4-23.9-23.5-23.9v-8.1c18.9,0,31,13,31,32.1c0,8.9-3.3,16.8-8.7,22.2
		c-4.9,4.6-10.8,7.5-18.3,7.5C98.7,554.5,90.6,548,84.7,538.9z M30.9,517.1h11.5v11.7H30.9V517.1z"/>
</g>
</svg>
