<?xml version="1.0" encoding="utf-8"?>
<!-- Generator: Adobe Illustrator 21.1.0, SVG Export Plug-In . SVG Version: 6.00 Build 0)  -->
<svg version="1.1" id="Layer_1" xmlns="http://www.w3.org/2000/svg" xmlns:xlink="http://www.w3.org/1999/xlink" x="0px" y="0px"
	 viewBox="0 0 138 850.1" style="enable-background:new 0 0 138 850.1;" xml:space="preserve">
<style type="text/css">
	.st0{fill:#9A7A6F;}
</style>
<g>
	<path class="st0" d="M106.6,756.3v8.4l-91.7,27.6l91.7,27.6v8.1l-104.7,22v-7.2l93.6-19.6l-92-27.6v-6.9l92-27.8L1.9,741.6v-7.2
		L106.6,756.3z"/>
	<path class="st0" d="M106.6,646.5H55.2V705h51.4v7.7H1.9V705h45.8v-58.5H1.9v-7.7h104.7V646.5z"/>
	<path class="st0" d="M106.6,542.2L79,552.8v50.6l27.6,10.3v8L1.9,582v-7.5l104.7-40.2V542.2z M12.5,578.3l59.2,22.3v-45L12.5,578.3
		z"/>
	<path class="st0" d="M9.3,500.4h97.3v7.7H9.3v33.2H1.9V467h7.4V500.4z"/>
	<path class="st0" d="M106.6,337.3v8.4l-91.7,27.6l91.7,27.6v8.1L1.9,431v-7.2l93.6-19.6l-92-27.6v-6.9l92-27.8L1.9,322.5v-7.2
		L106.6,337.3z"/>
	<path class="st0" d="M106.6,293.6H1.9v-67h7.4v59.2h38.4v-52.1h7.4v52.1h44.1v-59.2h7.4V293.6z"/>
	<path class="st0" d="M96.2,109.8c6.1,6.2,10.3,15.4,10.3,26.4v34.7H1.9v-34.7c0-11.1,4.3-20.2,10.3-26.4
		c11.1-11.5,27.3-12.7,41.9-12.7C68.8,97.1,85.2,98.3,96.2,109.8z M17.3,115.4c-5,5.3-7.8,13-7.8,20.8v27h89.6v-27
		c0-7.8-2.8-15.5-7.8-20.8c-9.4-9.7-24.5-10.5-37.1-10.5C41.6,104.9,26.6,105.7,17.3,115.4z"/>
	<path class="st0" d="M97.9,13.1c6.2,6.5,10.6,15.5,10.6,26.9s-4.4,20.4-10.6,26.9C86.5,78.7,69.2,80,54.2,80
		C39.1,80,22,78.7,10.6,66.9C4.4,60.4,0,51.4,0,40s4.4-20.4,10.6-26.9C22,1.3,39.1,0,54.2,0C69.2,0,86.5,1.3,97.9,13.1z M15.6,18.7
		C10.3,24.2,7.5,31.9,7.5,40s2.8,15.8,8.1,21.3C25.5,71.6,41.8,72,54.2,72c12.4,0,28.8-0.4,38.7-10.8c5.3-5.5,8.1-13.1,8.1-21.3
		s-2.8-15.8-8.1-21.3C83,8.4,66.6,8,54.2,8C41.8,8,25.5,8.4,15.6,18.7z"/>
</g>
</svg>
