<?xml version="1.0" encoding="utf-8"?>
<!-- Generator: Adobe Illustrator 21.1.0, SVG Export Plug-In . SVG Version: 6.00 Build 0)  -->
<svg version="1.1" id="Layer_1" xmlns="http://www.w3.org/2000/svg" xmlns:xlink="http://www.w3.org/1999/xlink" x="0px" y="0px"
	 viewBox="0 0 170 170" style="enable-background:new 0 0 170 170;" xml:space="preserve">
<style type="text/css">
	.st0{fill:#F7F3F3;}
</style>
<path class="st0" d="M85,0C38.1,0,0,38.1,0,85c0,46.9,38.1,85,85,85s85-38.1,85-85C170,38.1,131.9,0,85,0z M118.1,97.3
	c-11.3,14-29.7,15-38.1,6.3c-0.7-0.7-1.2-1.4-1.8-2.2c-0.1,0.3-0.2,0.6-0.2,0.9c-4.1,15.9-4.5,19.4-8.7,26.8c-2,3.5-4.2,6.8-6.7,10
	c-0.3,0.4-0.5,0.8-1.1,0.7c-0.6-0.1-0.7-0.7-0.7-1.2c-0.7-4.8-1-9.7-0.9-14.6c0.2-6.4,1-8.5,9.2-43c0.1-0.5,0-1-0.2-1.4
	c-2-5.3-2.3-10.7-0.6-16.1c3.7-11.8,17-12.7,19.4-3c1.4,6-2.4,13.9-5.3,25.5c-2.4,9.6,8.9,16.4,18.5,9.4
	c8.9-6.4,12.3-21.9,11.7-32.8C111.2,40.8,87.2,36.1,72,43.1c-17.4,8.1-21.4,29.6-13.5,39.5c1,1.3,1.8,2,1.4,3.3c-0.5,2-1,4-1.5,5.9
	c-0.4,1.5-1.6,2-3.1,1.4c-2.9-1.2-5.3-3-7.3-5.4c-6.7-8.3-8.6-24.6,0.2-38.5c9.8-15.3,28-21.5,44.6-19.7
	c19.8,2.3,32.4,15.8,34.7,31.2C128.7,67.8,127.9,85.1,118.1,97.3z"/>
</svg>
