<?xml version="1.0" encoding="utf-8"?>
<!-- Generator: Adobe Illustrator 21.1.0, SVG Export Plug-In . SVG Version: 6.00 Build 0)  -->
<svg version="1.1" id="Layer_1" xmlns="http://www.w3.org/2000/svg" xmlns:xlink="http://www.w3.org/1999/xlink" x="0px" y="0px"
	 viewBox="0 0 138 1996.5" style="enable-background:new 0 0 138 1996.5;" xml:space="preserve">
<style type="text/css">
	.st0{fill:#9A7A6F;}
</style>
<g>
	<path class="st0" d="M30.9,30.5c0-19.4,13.4-30.7,31.3-31v7.4C49.1,7,37.9,14.6,37.9,30.5c0,14.3,8.3,23.8,21.4,23.8
		c15.2,0,22.7-9.3,22.7-23.9v-5.4h7v5.4C89,43.4,95.9,52,109.4,52c11.9,0,19.7-9.8,19.7-21.1c0-14-9-23.2-22.9-23.3V0
		c18.1,0.3,29.9,13.3,29.9,30.9c0,15.6-10.3,28.7-26.7,28.7c-10.9,0-20.7-5.5-23.9-16.5c-3.4,11.9-14.1,18.7-26.2,18.7
		C42.3,61.8,30.9,47.6,30.9,30.5z"/>
	<path class="st0" d="M78.7,171.6l-45.9,21v-8.3l44-20.3v-36h-44v-7.6h103.3v37.7c0,22.6-11.8,34.8-29.7,34.8
		C92.8,193.1,82.2,184.6,78.7,171.6z M129,158.2v-30.2H83.8v30.2c0,17,7.9,27,22.6,27C121.1,185.2,129,175.3,129,158.2z"/>
	<path class="st0" d="M32.8,216.1h103.3v66.2h-7.3v-58.4H90.9v51.4h-7.3v-51.4H40.1v58.4h-7.3V216.1z"/>
	<path class="st0" d="M32.8,369.8L60,359.3v-50l-27.2-10.2v-7.9l103.3,39.2v7.4L32.8,377.5V369.8z M125.6,334.1l-58.4-22v44.4
		L125.6,334.1z"/>
	<path class="st0" d="M41,452.7c-6.8-7-10.1-17.3-10.1-29.3c0-11.8,3.8-22,11.1-28.9c5.4-5.1,12.7-8.6,20.5-9.3v7.9
		c-6.1,0.7-11.8,3.6-15.9,7.6c-5.7,5.5-8.5,14.1-8.5,22.7c0,8.9,2.3,17.8,7.7,23.5c3.5,3.6,8.3,6.1,14.9,6.1
		c9.9,0,18.5-7.7,20.1-20.1l2.5-19.2c1.9-14.6,10.2-25.4,26.1-25.4c8.6,0,14.7,3.8,19.5,9c5.8,6.4,9,15.9,9,25.5
		c0,11.1-4.5,22.1-11.4,28c-5.1,4.4-10.5,7.3-17.9,7.9v-7.7c5.2-0.7,9.2-2.3,13.1-5.7c5.5-4.5,8.9-13,8.9-22.4
		c0-7.4-1.9-14.6-6.3-19.7c-3.5-3.9-8.3-7-15-7c-12.2,0-16.9,8.7-18.1,18.2l-2.5,19.5c-2,16-13.6,27-28.1,27
		C51.7,460.9,45.8,457.5,41,452.7z"/>
	<path class="st0" d="M41.4,543c-6.1-6.4-10.5-15.3-10.5-26.5c0-11.2,4.4-20.1,10.5-26.5c11.2-11.7,28.3-13,43.1-13
		c14.9,0,31.8,1.3,43,13c6.1,6.4,10.5,15.3,10.5,26.5c0,11.2-4.4,20.1-10.5,26.5c-11.2,11.7-28.1,13-43,13
		C69.7,556,52.6,554.7,41.4,543z M122.6,537.5c5.2-5.4,8-13,8-21s-2.8-15.6-8-21c-9.8-10.2-25.8-10.6-38-10.6
		c-12.2,0-28.4,0.4-38.2,10.6c-5.2,5.4-8,13-8,21s2.8,15.6,8,21c9.8,10.2,25.9,10.6,38.2,10.6C96.8,548.1,112.8,547.7,122.6,537.5z"
		/>
	<path class="st0" d="M32.8,647.6l91.5-59.9H32.8v-7.6h103.3v8.6l-91.4,60h91.4v7.4H32.8V647.6z"/>
	<path class="st0" d="M41,746.7c-6.8-7-10.1-17.3-10.1-29.3c0-11.8,3.8-22,11.1-28.9c5.4-5.1,12.7-8.6,20.5-9.3v7.9
		c-6.1,0.7-11.8,3.6-15.9,7.6c-5.7,5.5-8.5,14.1-8.5,22.7c0,8.9,2.3,17.8,7.7,23.5c3.5,3.6,8.3,6.1,14.9,6.1
		c9.9,0,18.5-7.7,20.1-20.1l2.5-19.2c1.9-14.6,10.2-25.4,26.1-25.4c8.6,0,14.7,3.8,19.5,9c5.8,6.4,9,15.9,9,25.5
		c0,11.1-4.5,22.1-11.4,28c-5.1,4.4-10.5,7.3-17.9,7.9V745c5.2-0.7,9.2-2.3,13.1-5.7c5.5-4.5,8.9-13,8.9-22.4
		c0-7.4-1.9-14.6-6.3-19.7c-3.5-3.9-8.3-7-15-7c-12.2,0-16.9,8.7-18.1,18.2l-2.5,19.5c-2,16-13.6,27-28.1,27
		C51.7,754.9,45.8,751.5,41,746.7z"/>
	<path class="st0" d="M128.8,832.8h-96v-7.6h96v-32.8h7.3v73.3h-7.3V832.8z"/>
	<path class="st0" d="M41.4,938.8c-6.1-6.4-10.5-15.3-10.5-26.5s4.4-20.1,10.5-26.5c11.2-11.7,28.3-13,43.1-13
		c14.9,0,31.8,1.3,43,13c6.1,6.4,10.5,15.3,10.5,26.5s-4.4,20.1-10.5,26.5c-11.2,11.7-28.1,13-43,13
		C69.7,951.7,52.6,950.4,41.4,938.8z M122.6,933.2c5.2-5.4,8-13,8-21s-2.8-15.6-8-21c-9.8-10.2-25.8-10.6-38-10.6
		c-12.2,0-28.4,0.4-38.2,10.6c-5.2,5.4-8,13-8,21s2.8,15.6,8,21c9.8,10.2,25.9,10.6,38.2,10.6C96.8,943.9,112.8,943.4,122.6,933.2z"
		/>
	<path class="st0" d="M32.8,1089.7v-8.3l90.5-27.2l-90.5-27.2v-8l103.3-21.7v7.1l-92.4,19.4l90.8,27.2v6.8l-90.8,27.4l92.4,19.1v7.1
		L32.8,1089.7z"/>
	<path class="st0" d="M41.4,1190.8c-6.1-6.4-10.5-15.3-10.5-26.5c0-11.2,4.4-20.1,10.5-26.5c11.2-11.7,28.3-13,43.1-13
		c14.9,0,31.8,1.3,43,13c6.1,6.4,10.5,15.3,10.5,26.5c0,11.2-4.4,20.1-10.5,26.5c-11.2,11.7-28.1,13-43,13
		C69.7,1203.8,52.6,1202.5,41.4,1190.8z M122.6,1185.3c5.2-5.4,8-13,8-21c0-8-2.8-15.6-8-21c-9.8-10.2-25.8-10.6-38-10.6
		c-12.2,0-28.4,0.4-38.2,10.6c-5.2,5.4-8,13-8,21c0,8,2.8,15.6,8,21c9.8,10.2,25.9,10.6,38.2,10.6
		C96.8,1195.9,112.8,1195.5,122.6,1185.3z"/>
	<path class="st0" d="M78.7,1279.1l-45.9,21v-8.3l44-20.3v-36h-44v-7.6h103.3v37.7c0,22.6-11.8,34.8-29.7,34.8
		C92.8,1300.5,82.2,1292.1,78.7,1279.1z M129,1265.7v-30.2H83.8v30.2c0,17,7.9,27,22.6,27C121.1,1292.7,129,1282.8,129,1265.7z"/>
	<path class="st0" d="M32.8,1392.3l59-34.2l-30.3-26.8H32.8v-7.7h103.3v7.7H72.4l63.7,56.8v9.3l-38.6-34.2l-64.7,37.7V1392.3z"/>
	<path class="st0" d="M32.8,1532.8v-8.3l90.5-27.2L32.8,1470v-8l103.3-21.7v7.1l-92.4,19.4l90.8,27.2v6.8l-90.8,27.4l92.4,19.1v7.1
		L32.8,1532.8z"/>
	<path class="st0" d="M32.8,1575.9h103.3v7.7H32.8V1575.9z"/>
	<path class="st0" d="M128.8,1641.9h-96v-7.6h96v-32.8h7.3v73.3h-7.3V1641.9z"/>
	<path class="st0" d="M32.8,1758h50.7v-57.7H32.8v-7.6h103.3v7.6H90.9v57.7h45.2v7.6H32.8V1758z"/>
	<path class="st0" d="M30.9,1863.1c0-24.8,17-36.6,39.8-36.6h65.4v7.6H70.5c-17.9,0-32.3,8.7-32.3,29s14.4,29.1,32.3,29.1h65.6v7.6
		H70.7C47.9,1899.8,30.9,1887.8,30.9,1863.1z"/>
	<path class="st0" d="M41,1988.4c-6.8-7-10.1-17.3-10.1-29.3c0-11.8,3.8-22,11.1-28.9c5.4-5.1,12.7-8.6,20.5-9.3v7.9
		c-6.1,0.7-11.8,3.6-15.9,7.6c-5.7,5.5-8.5,14.1-8.5,22.7c0,8.9,2.3,17.8,7.7,23.5c3.5,3.6,8.3,6.1,14.9,6.1
		c9.9,0,18.5-7.7,20.1-20.1l2.5-19.2c1.9-14.6,10.2-25.4,26.1-25.4c8.6,0,14.7,3.8,19.5,9c5.8,6.4,9,15.9,9,25.5
		c0,11.1-4.5,22.1-11.4,28c-5.1,4.4-10.5,7.3-17.9,7.9v-7.7c5.2-0.7,9.2-2.3,13.1-5.7c5.5-4.5,8.9-13,8.9-22.4
		c0-7.4-1.9-14.6-6.3-19.7c-3.5-3.9-8.3-7-15-7c-12.2,0-16.9,8.7-18.1,18.2l-2.5,19.5c-2,16-13.6,27-28.1,27
		C51.7,1996.5,45.8,1993.2,41,1988.4z"/>
</g>
</svg>
