<?xml version="1.0" encoding="utf-8"?>
<!-- Generator: Adobe Illustrator 21.1.0, SVG Export Plug-In . SVG Version: 6.00 Build 0)  -->
<svg version="1.1" id="Layer_1" xmlns="http://www.w3.org/2000/svg" xmlns:xlink="http://www.w3.org/1999/xlink" x="0px" y="0px"
	 viewBox="0 0 138 1745.5" style="enable-background:new 0 0 138 1745.5;" xml:space="preserve">
<style type="text/css">
	.st0{fill:#9A7A6F;}
</style>
<g>
	<path class="st0" d="M30.9,31c0-19.4,13.4-30.7,31.3-31v7.4C49.1,7.6,37.9,15.2,37.9,31c0,14.3,8.3,23.8,21.4,23.8
		c15.2,0,22.7-9.3,22.7-23.9v-5.4h7v5.4c0,13.1,6.8,21.7,20.4,21.7c11.9,0,19.7-9.8,19.7-21.1c0-14-9-23.2-22.9-23.3V0.6
		c18.1,0.3,29.9,13.3,29.9,30.9c0,15.6-10.3,28.7-26.7,28.7c-10.9,0-20.7-5.5-23.9-16.5c-3.4,11.9-14.1,18.7-26.2,18.7
		C42.3,62.4,30.9,48.2,30.9,31z"/>
	<path class="st0" d="M78.7,172.2l-45.9,21v-8.3l44-20.3v-36h-44v-7.6h103.3v37.7c0,22.6-11.8,34.8-29.7,34.8
		C92.8,193.6,82.2,185.2,78.7,172.2z M129,158.8v-30.2H83.8v30.2c0,17,7.9,27,22.6,27C121.1,185.8,129,175.9,129,158.8z"/>
	<path class="st0" d="M67.5,270.6v-55.7c-8.5,0.1-16.3,2.9-21.9,7.6c-4.8,4.1-7.7,9.8-7.7,17.6c0,6.4,2.3,11.9,6.4,15.9
		c2.8,2.6,6,4.7,10.3,5.5v7.6c-6.3-1-11.4-4.1-15.3-8.2c-5.2-5.2-8.5-12.5-8.5-20.8c0-10.5,4.4-17.9,10.3-23.2
		c7-6,16.6-9.3,27.7-9.3c9.2,0,18.2,1.5,25.9,7.1c8.3,6.1,12.7,14.6,12.7,24.8c0,19.7-16.9,31.2-35.3,31.2
		C70.5,270.7,69.2,270.6,67.5,270.6z M100.7,239.5c0-15-12.1-24.5-26.5-24.5v48.2C88,263,100.7,254.4,100.7,239.5z"/>
	<path class="st0" d="M32.4,349.2c0-9,6.6-11.5,14.3-11.5c-10.3-3.9-15.7-15-15.7-26.2c0-14.1,8.5-25.1,22.4-25.1
		c13,0,20.7,10.1,21.7,24.5l1.9,26.8h7.1c12.1,0,16.6-8.2,16.6-19.2c0-11.5-5.2-20.3-16-21v-7.3c14.7,1,22.9,12.5,22.9,28.3
		c0,9.9-3.4,20.7-13.4,24.6c-4.5,1.7-9.2,1.9-14,1.9H46.9c-5,0-7.9,0.7-7.9,5.7c0,0.9,0,1.3,0.1,2h-6.4
		C32.5,351,32.4,351,32.4,349.2z M70.2,337.7l-1.6-26.1c-0.7-10.8-6.4-17.8-15.3-17.8c-10.5,0-15.7,7.9-15.7,18.2
		c0,18.4,14.9,25.6,28.9,25.6H70.2z"/>
	<path class="st0" d="M39.6,421.2c-5.8-5.2-8.7-14-8.7-23.6c0-9.9,3.1-18.4,9.3-23.9c4.7-4.1,8.7-5.8,14.7-6.1v7.4
		c-4.4,0.4-8.2,2.3-11.2,5.4c-4.1,4.2-5.8,10.2-5.8,17.2c0,7.6,1.7,13.6,5.4,17.2c2.6,2.6,5.1,3.9,9.3,3.9c6.6,0,12.1-4.7,13.3-13.4
		l1.9-14.1c0.7-6,2.6-12.4,7.3-16.5c3.1-2.6,6.8-4.1,11.5-4.1c5.8,0,10.6,2.5,14.1,6.3c4.8,5.2,6.8,12.4,6.8,20c0,8.7-2.8,17-8.6,22
		c-3.9,3.4-8.7,5.4-13.4,5.5v-7.3c2.3-0.3,6-1.3,8.7-3.6c3.9-3.4,6.4-9,6.4-16.6c0-5.7-1-9.9-3.4-13.1c-2.6-3.6-6.1-5.7-10.1-5.7
		c-6.1,0-10.8,3.1-12.2,14.1l-1.9,13.8c-1.9,13.7-11.2,20.1-20.1,20.1C47.7,426.2,43.3,424.4,39.6,421.2z"/>
	<path class="st0" d="M39.6,495.4c-5.1-5.1-8.7-12.2-8.7-21.3s3.6-16.2,8.7-21.3c7.6-7.6,17.2-10.3,29.6-10.3s22,2.8,29.6,10.3
		c5.1,5.1,8.7,12.2,8.7,21.3s-3.6,16.2-8.7,21.3c-7.6,7.6-17.2,10.3-29.6,10.3S47.2,503,39.6,495.4z M94,490.1c3.9-3.8,6.4-9,6.4-16
		c0-7-2.5-12.2-6.4-16c-6.8-6.6-15.3-8.2-24.8-8.2c-9.5,0-17.9,1.6-24.8,8.2c-3.9,3.8-6.4,9-6.4,16c0,7,2.5,12.2,6.4,16
		c6.8,6.6,15.3,8.2,24.8,8.2C78.7,498.3,87.1,496.7,94,490.1z"/>
	<path class="st0" d="M32.8,578.6h47.6c12.7,0,20-5.5,20-18.8c0-17.9-15.4-24.2-31.2-24.2H32.8v-7.3h72.9v6.4l-13.3,0.9
		c9.2,4.1,15.2,14.4,15.2,24.6c0,16.8-10.3,25.6-26.7,25.6H32.8V578.6z"/>
	<path class="st0" d="M39.6,660.3c-5.8-5.2-8.7-14-8.7-23.6c0-9.9,3.1-18.4,9.3-23.9c4.7-4.1,8.7-5.8,14.7-6.1v7.4
		c-4.4,0.4-8.2,2.3-11.2,5.4c-4.1,4.2-5.8,10.2-5.8,17.2c0,7.6,1.7,13.6,5.4,17.2c2.6,2.6,5.1,3.9,9.3,3.9c6.6,0,12.1-4.7,13.3-13.4
		l1.9-14.1c0.7-6,2.6-12.4,7.3-16.5c3.1-2.6,6.8-4.1,11.5-4.1c5.8,0,10.6,2.5,14.1,6.3c4.8,5.2,6.8,12.4,6.8,20c0,8.7-2.8,17-8.6,22
		c-3.9,3.4-8.7,5.4-13.4,5.5v-7.3c2.3-0.3,6-1.3,8.7-3.6c3.9-3.4,6.4-9,6.4-16.6c0-5.7-1-9.9-3.4-13.1c-2.6-3.6-6.1-5.7-10.1-5.7
		c-6.1,0-10.8,3.1-12.2,14.1l-1.9,13.8c-1.9,13.7-11.2,20.1-20.1,20.1C47.7,665.3,43.3,663.5,39.6,660.3z"/>
	<path class="st0" d="M128.8,743.7h-96v-7.6h96v-32.8h7.3v73.3h-7.3V743.7z"/>
	<path class="st0" d="M39.6,826.7c-5.1-5.1-8.7-12.2-8.7-21.3c0-9,3.6-16.2,8.7-21.3c7.6-7.6,17.2-10.3,29.6-10.3s22,2.8,29.6,10.3
		c5.1,5.1,8.7,12.2,8.7,21.3c0,9-3.6,16.2-8.7,21.3c-7.6,7.6-17.2,10.3-29.6,10.3S47.2,834.3,39.6,826.7z M94,821.5
		c3.9-3.8,6.4-9,6.4-16c0-7-2.5-12.2-6.4-16c-6.8-6.6-15.3-8.2-24.8-8.2c-9.5,0-17.9,1.6-24.8,8.2c-3.9,3.8-6.4,9-6.4,16
		c0,7,2.5,12.2,6.4,16c6.8,6.6,15.3,8.2,24.8,8.2C78.7,829.6,87.1,828,94,821.5z"/>
	<path class="st0" d="M32.8,974.7v-8.3l90.5-27.2l-90.5-27.2v-8l103.3-21.7v7.1l-92.4,19.4l90.8,27.2v6.8l-90.8,27.4l92.4,19.1v7.1
		L32.8,974.7z"/>
	<path class="st0" d="M39.6,1061c-5.1-5.1-8.7-12.2-8.7-21.3c0-9,3.6-16.2,8.7-21.3c7.6-7.6,17.2-10.3,29.6-10.3s22,2.8,29.6,10.3
		c5.1,5.1,8.7,12.2,8.7,21.3c0,9-3.6,16.2-8.7,21.3c-7.6,7.6-17.2,10.3-29.6,10.3S47.2,1068.6,39.6,1061z M94,1055.7
		c3.9-3.8,6.4-9,6.4-16c0-7-2.5-12.2-6.4-16c-6.8-6.6-15.3-8.2-24.8-8.2c-9.5,0-17.9,1.6-24.8,8.2c-3.9,3.8-6.4,9-6.4,16
		c0,7,2.5,12.2,6.4,16c6.8,6.6,15.3,8.2,24.8,8.2C78.7,1063.9,87.1,1062.3,94,1055.7z"/>
	<path class="st0" d="M99.4,1124.4c0-18.2-16.3-23.2-31.6-23.2h-35v-7.3h72.9v6.4l-14.7,0.9c10.1,3.2,15.4,13,15.4,23.2
		c0,2.3,0,4.8-0.4,7.1h-7.3C99.2,1129.2,99.4,1126.7,99.4,1124.4z"/>
	<path class="st0" d="M32.8,1201.6l38.9-25.6l-20.8-19.1H32.8v-7.4H138v7.4H61.4l44.3,40.9v9.2l-28.1-25.8l-44.7,29.3V1201.6z"/>
	<path class="st0" d="M32.8,1342.6v-8.3l90.5-27.2l-90.5-27.2v-8l103.3-21.7v7.1l-92.4,19.4l90.8,27.2v6.8l-90.8,27.4l92.4,19.1v7.1
		L32.8,1342.6z"/>
	<path class="st0" d="M125.9,1383.9h10.2v10.2h-10.2V1383.9z M32.8,1385.2h72.9v7.7H32.8V1385.2z"/>
	<path class="st0" d="M31.8,1444.8c0-13.6,8.6-18.8,21.3-18.8h45.9v-14.6h6.7v14.6h20.1l1.7,7.3h-21.9v22.6h-6.7v-22.6H53.3
		c-8.6,0-14.7,2.3-14.7,12.1c0,3.9,0.6,7.6,1.3,11.5h-6.4C32.6,1452.8,31.8,1448.8,31.8,1444.8z"/>
	<path class="st0" d="M32.8,1526.5h47.6c12.7,0,20.3-5.5,20.3-18.8c0-17.9-15.7-24.2-31.5-24.2H32.8v-7.3H138v7.3H92.2
		c9.3,4.1,15.3,14.4,15.3,24.6c0,16.8-10.3,25.6-26.7,25.6H32.8V1526.5z"/>
	<path class="st0" d="M30.9,1628.5c0-24.8,17-36.6,39.8-36.6h65.4v7.6H70.5c-17.9,0-32.3,8.7-32.3,29c0,20.3,14.4,29.1,32.3,29.1
		h65.6v7.6H70.7C47.9,1665.2,30.9,1653.3,30.9,1628.5z"/>
	<path class="st0" d="M39.6,1740.5c-5.8-5.2-8.7-14-8.7-23.6c0-9.9,3.1-18.4,9.3-23.9c4.7-4.1,8.7-5.8,14.7-6.1v7.4
		c-4.4,0.4-8.2,2.3-11.2,5.4c-4.1,4.2-5.8,10.2-5.8,17.2c0,7.6,1.7,13.6,5.4,17.2c2.6,2.6,5.1,3.9,9.3,3.9c6.6,0,12.1-4.7,13.3-13.4
		l1.9-14.1c0.7-6,2.6-12.4,7.3-16.5c3.1-2.6,6.8-4.1,11.5-4.1c5.8,0,10.6,2.5,14.1,6.3c4.8,5.2,6.8,12.4,6.8,20c0,8.7-2.8,17-8.6,22
		c-3.9,3.4-8.7,5.4-13.4,5.5v-7.3c2.3-0.3,6-1.3,8.7-3.6c3.9-3.4,6.4-9,6.4-16.6c0-5.7-1-9.9-3.4-13.1c-2.6-3.6-6.1-5.7-10.1-5.7
		c-6.1,0-10.8,3.1-12.2,14.1l-1.9,13.8c-1.9,13.7-11.2,20.1-20.1,20.1C47.7,1745.5,43.3,1743.7,39.6,1740.5z"/>
</g>
</svg>
