<?xml version="1.0" encoding="utf-8"?>
<!-- Generator: Adobe Illustrator 21.1.0, SVG Export Plug-In . SVG Version: 6.00 Build 0)  -->
<svg version="1.1" id="Layer_1" xmlns="http://www.w3.org/2000/svg" xmlns:xlink="http://www.w3.org/1999/xlink" x="0px" y="0px"
	 viewBox="0 0 170 170" style="enable-background:new 0 0 170 170;" xml:space="preserve">
<style type="text/css">
	.st0{fill:#F7F3F3;}
</style>
<g>
	<path class="st0" d="M85,70.8c-7.8,0-14.3,6.4-14.3,14.2s6.4,14.3,14.2,14.3s14.3-6.4,14.3-14.2C99.3,77.2,92.8,70.8,85,70.8z"/>
	<path class="st0" d="M85,0C38.1,0,0,38.1,0,85s38.1,85,85,85s85-38.1,85-85S131.9,0,85,0z M127.7,98.6c0,4.5-0.2,8.9-1.7,13.2
		c-2.9,8.3-8.7,13.4-17.3,15c-3.9,0.7-7.9,0.9-11.8,1c-8.5,0.1-16.9,0.1-25.4,0c-4.5,0-8.9-0.2-13.2-1.7c-8.3-2.8-13.4-8.7-15-17.2
		c-0.7-3.9-0.9-7.9-1-11.8c-0.1-8.5-0.1-17,0-25.5c0-4.5,0.2-8.9,1.7-13.2c2.9-8.3,8.7-13.4,17.3-15c3.9-0.7,7.9-0.8,11.8-1
		c4-0.2,8,0,12,0v-0.1c5.7,0.1,11.5,0.2,17.2,0.3c5,0.1,9.8,1,14.2,3.7c5.7,3.5,9.2,8.6,10.3,15.1c0.7,3.9,0.9,7.9,1,11.8
		C127.8,81.6,127.8,90.1,127.7,98.6z"/>
	<path class="st0" d="M120,74.2c-0.1-3.2-0.2-6.5-0.5-9.7c-0.7-7.2-5-12.2-12.2-13.6c-3.7-0.7-7.6-0.8-11.5-0.9
		c-7.2-0.1-14.5-0.1-21.7,0c-3.6,0.1-7.3,0.2-10.8,0.7c-6.2,1-10.4,4.5-12.1,10.6c-0.6,2-0.9,4-0.9,6.1C50.1,75.3,49.9,83,50,90.7
		c0,4.9,0.1,9.9,0.6,14.8c0.6,7.4,5.1,12.4,12.4,13.7c3.7,0.7,7.6,0.8,11.4,0.8c7.2,0.1,14.3,0.1,21.5,0c3.3,0,6.6-0.2,9.8-0.5
		c3.1-0.3,5.9-1.3,8.4-3.2c4-3.2,5.5-7.5,5.7-12.3c0.3-6.5,0.4-13,0.6-19.6c-0.1,0-0.1,0-0.2,0C120,81,120.1,77.6,120,74.2z M85,107
		c-12.3,0-22-9.8-21.9-22.2C63.1,72.7,73,63,85.3,63c12,0,21.8,9.9,21.8,22C107,97.3,97.2,107,85,107z M107.8,67.4
		c-2.8,0-5.2-2.4-5.2-5.2s2.3-5.1,5.1-5.1c2.9,0,5.2,2.2,5.2,5.1C113,65.1,110.7,67.4,107.8,67.4z"/>
</g>
</svg>
