<?xml version="1.0" encoding="utf-8"?>
<!-- Generator: Adobe Illustrator 21.1.0, SVG Export Plug-In . SVG Version: 6.00 Build 0)  -->
<svg version="1.1" id="Layer_1" xmlns="http://www.w3.org/2000/svg" xmlns:xlink="http://www.w3.org/1999/xlink" x="0px" y="0px"
	 viewBox="0 0 290.8 118.7" style="enable-background:new 0 0 290.8 118.7;" xml:space="preserve">
<style type="text/css">
	.st0{fill:#3F0D01;}
</style>
<g>
	<polygon class="st0" points="286.5,0 242.7,0 172.5,116.5 172.5,116.8 218.3,116.8 286.5,0.3 	"/>
	<path class="st0" d="M226.8,1.8V0h-50l-4.3,41.7h2.4C184.3,20.2,202.8,6.8,226.8,1.8z"/>
	<path class="st0" d="M234.9,114.9l-0.1,1.9l50.5,0.1l5.5-41.8l-2.5-0.1C278.3,96.3,259.2,110.6,234.9,114.9z"/>
	<path class="st0" d="M10.8,0v0.3c3,2.4,13,14.8,14.7,17.9c13.2,23.9,42.4,100.5,42.4,100.5h0.7l20.8-51L61.5,0H10.8z"/>
	<path class="st0" d="M106.9,18.4v78.8c0,11-1.8,13.7-9,19.4v0.3h58.4v-0.3c-7.2-5.7-9-8.4-9-19.4V19.7c0-11,1.8-13.7,9-19.4V0
		h-49.4V18.4z"/>
	<path class="st0" d="M22.7,75.8h-0.9c-2,6.4-10.2,31.8-21.8,40v1h44.6v-1.1C32.9,107.6,24.7,82.2,22.7,75.8z"/>
</g>
</svg>
