<?xml version="1.0" encoding="utf-8"?>
<!-- Generator: Adobe Illustrator 21.1.0, SVG Export Plug-In . SVG Version: 6.00 Build 0)  -->
<svg version="1.1" id="Layer_1" xmlns="http://www.w3.org/2000/svg" xmlns:xlink="http://www.w3.org/1999/xlink" x="0px" y="0px"
	 viewBox="0 0 290.8 162" style="enable-background:new 0 0 290.8 162;" xml:space="preserve">
<style type="text/css">
	.st0{fill:#3F0D01;}
</style>
<path class="st0" d="M5.4,151.2H1.1v6.4H0V142h5.4c3,0,5.2,1.4,5.2,4.6C10.6,149.8,8.4,151.2,5.4,151.2z M5.4,143.1H1.1v7h4.3
	c2.3,0,4-1.1,4-3.5S7.7,143.1,5.4,143.1z"/>
<path class="st0" d="M21.6,152.4h-8.4c0,1.2,0.4,2.4,1.1,3.3c0.7,0.8,1.6,1.2,2.7,1.2c0.9,0,1.8-0.3,2.4-1c0.4-0.4,0.7-1,0.8-1.6
	h1.1c-0.1,0.9-0.6,1.7-1.2,2.3c-0.8,0.8-2,1.3-3.1,1.3c-1.3,0-2.6-0.5-3.5-1.6c-0.9-1.1-1.4-2.5-1.4-4.2c0-1.4,0.2-2.7,1.1-3.9
	c0.8-1.2,2.2-1.9,3.7-1.9c3,0,4.7,2.5,4.7,5.3C21.6,151.9,21.6,152.1,21.6,152.4z M16.9,147.4c-2.3,0-3.7,1.8-3.7,4h7.3
	C20.4,149.3,19.1,147.4,16.9,147.4L16.9,147.4z"/>
<path class="st0" d="M29.5,147.6c-2.7,0-3.5,2.5-3.5,4.8v5.3h-1.1v-11h1l0.1,2.2c0.5-1.5,2-2.3,3.5-2.3c0.4,0,0.7,0,1.1,0.1v1.1
	C30.2,147.6,29.8,147.6,29.5,147.6z"/>
<path class="st0" d="M37.1,142.6c-1.4,0-2.1,0.7-2.1,2.1v1.9h3.4v1h-3.4v10H34v-10h-2.2v-1H34v-1.9c0-1.7,1-3.1,3.1-3.1
	c0.6,0,1.1,0,1.7,0.1v1C38.2,142.7,37.7,142.6,37.1,142.6z"/>
<path class="st0" d="M49.4,152.4H41c0,1.2,0.4,2.4,1.1,3.3c0.7,0.8,1.6,1.2,2.7,1.2c0.9,0,1.8-0.3,2.4-1c0.4-0.4,0.7-1,0.8-1.6h1.1
	c-0.1,0.9-0.6,1.7-1.2,2.3c-0.8,0.8-2,1.3-3.1,1.3c-1.3,0-2.6-0.5-3.5-1.6c-0.9-1.1-1.4-2.5-1.4-4.2c0-1.4,0.2-2.7,1.1-3.9
	c0.8-1.2,2.2-1.9,3.7-1.9c3,0,4.7,2.5,4.7,5.3C49.4,151.9,49.4,152.1,49.4,152.4z M44.7,147.4c-2.3,0-3.7,1.8-3.7,4h7.3
	C48.2,149.3,46.9,147.4,44.7,147.4L44.7,147.4z"/>
<path class="st0" d="M56.5,157.9c-1.2,0-2.4-0.4-3.2-1.3c-1.1-1.1-1.5-2.6-1.5-4.5c0-1.9,0.4-3.3,1.5-4.5c0.9-0.8,2-1.3,3.2-1.3
	c2.3,0,4,1.5,4.2,3.7h-1.1c-0.2-1.5-1.5-2.7-3.1-2.6c-1.1,0-1.9,0.4-2.4,0.9c-1,1-1.2,2.3-1.2,3.8c0,1.4,0.2,2.7,1.2,3.8
	c0.6,0.6,1.4,0.9,2.4,0.9c1.7,0,2.9-1.2,3.1-2.7h1.2C60.5,156.3,58.7,157.9,56.5,157.9z"/>
<path class="st0" d="M67.2,157.8c-2,0-2.8-1.3-2.8-3.2v-6.9h-2.2v-1h2.2v-3l1.1-0.3v3.3h3.4v1h-3.4v6.9c0,1.3,0.4,2.2,1.8,2.2
	c0.6,0,1.2-0.1,1.7-0.2v1C68.4,157.6,67.8,157.7,67.2,157.8z"/>
<path class="st0" d="M86.2,156.5c-1.1,0.9-2.5,1.1-3.9,1.1h-5.5V142h5.5c1.2,0,2.4,0.2,3.4,0.8c1,0.7,1.6,1.8,1.6,3
	c0,1.7-0.7,3.2-2.5,3.6c1.9,0.5,2.8,2,2.8,3.8C87.7,154.5,87.2,155.7,86.2,156.5z M82.3,143.1H78v5.8h4.4c2.2,0,3.8-0.5,3.8-3
	C86.2,143.8,84.2,143.1,82.3,143.1L82.3,143.1z M82.3,150H78v6.5h4.4c2.1,0,4.2-0.6,4.2-3.3C86.5,150.7,84.6,150,82.3,150L82.3,150z
	"/>
<path class="st0" d="M98.6,157.6l-0.1-2c-0.6,1.4-2.2,2.3-3.7,2.3c-2.5,0-3.9-1.6-3.9-4v-7.2H92v7.2c0,1.9,0.8,3,2.8,3
	c2.7,0,3.6-2.3,3.6-4.7v-5.5h1.1v11H98.6z"/>
<path class="st0" d="M111,156.6c-0.8,0.9-2.1,1.3-3.6,1.3c-1.5,0-2.8-0.5-3.6-1.4c-0.6-0.6-0.9-1.4-0.9-2.2h1.1
	c0.1,0.6,0.4,1.2,0.8,1.7c0.6,0.6,1.5,0.9,2.6,0.9c1.1,0,2-0.3,2.6-0.8c0.4-0.4,0.6-0.9,0.6-1.4c0-1-0.7-1.8-2-2l-2.1-0.3
	c-0.9-0.1-1.9-0.4-2.5-1.1c-0.4-0.5-0.6-1.1-0.6-1.7c0-0.8,0.3-1.6,0.9-2.1c0.8-0.7,1.9-1,3-1c1.3,0,2.6,0.4,3.3,1.3
	c0.5,0.6,0.8,1.3,0.8,2h-1.1c-0.1-0.5-0.2-0.9-0.5-1.3c-0.5-0.6-1.4-1-2.5-1c-0.9,0-1.5,0.2-2,0.5c-0.5,0.3-0.8,0.9-0.9,1.5
	c0,0.9,0.5,1.6,2.1,1.8l2.1,0.3c2.1,0.3,3,1.7,3,3C111.8,155.3,111.5,156,111,156.6z"/>
<path class="st0" d="M115.1,143.6V142h1.5v1.5H115.1z M115.3,157.6v-11h1.2v11L115.3,157.6z"/>
<path class="st0" d="M128.4,157.6v-7.2c0-1.9-0.8-3-2.8-3c-2.7,0-3.6,2.3-3.6,4.7v5.5h-1.1v-11h1l0.1,2c0.6-1.4,2.2-2.3,3.7-2.3
	c2.5,0,3.9,1.6,3.9,4v7.2H128.4z"/>
<path class="st0" d="M142.2,152.4h-8.4c0,1.2,0.4,2.4,1.1,3.3c0.7,0.8,1.6,1.2,2.7,1.2c0.9,0,1.8-0.3,2.4-1c0.4-0.4,0.7-1,0.8-1.6
	h1.1c-0.1,0.9-0.6,1.7-1.2,2.3c-0.8,0.8-2,1.3-3.1,1.3c-1.3,0-2.6-0.5-3.5-1.6c-0.9-1.1-1.4-2.5-1.4-4.2c0-1.4,0.2-2.7,1.1-3.9
	c0.8-1.2,2.2-1.9,3.7-1.9c3,0,4.7,2.5,4.7,5.3C142.2,151.9,142.2,152.1,142.2,152.4z M137.5,147.4c-2.3,0-3.7,1.8-3.7,4h7.3
	C141.1,149.3,139.8,147.4,137.5,147.4z"/>
<path class="st0" d="M152.6,156.6c-0.8,0.9-2.1,1.3-3.6,1.3c-1.5,0-2.8-0.5-3.6-1.4c-0.6-0.6-0.9-1.4-0.9-2.2h1.1
	c0.1,0.6,0.4,1.2,0.8,1.7c0.6,0.6,1.5,0.9,2.6,0.9c1.1,0,2-0.3,2.6-0.8c0.4-0.4,0.6-0.9,0.6-1.4c0-1-0.7-1.8-2-2l-2.1-0.3
	c-0.9-0.1-1.9-0.4-2.5-1.1c-0.4-0.5-0.6-1.1-0.6-1.7c0-0.8,0.3-1.6,0.9-2.1c0.8-0.7,1.9-1,3-1c1.3,0,2.6,0.4,3.3,1.3
	c0.5,0.6,0.8,1.3,0.8,2H152c-0.1-0.5-0.2-0.9-0.5-1.3c-0.5-0.6-1.4-1-2.5-1c-0.9,0-1.5,0.2-2,0.5c-0.5,0.3-0.8,0.9-0.9,1.5
	c0,0.9,0.5,1.6,2.1,1.8l2.1,0.3c2.1,0.3,3,1.7,3,3C153.3,155.3,153.1,156,152.6,156.6z"/>
<path class="st0" d="M163.8,156.6c-0.8,0.9-2.1,1.3-3.6,1.3c-1.5,0-2.8-0.5-3.6-1.4c-0.6-0.6-0.9-1.4-0.9-2.2h1.1
	c0.1,0.6,0.4,1.2,0.8,1.7c0.6,0.6,1.5,0.9,2.6,0.9c1.1,0,2-0.3,2.6-0.8c0.4-0.4,0.6-0.9,0.6-1.4c0-1-0.7-1.8-2-2l-2.1-0.3
	c-0.9-0.1-1.9-0.4-2.5-1.1c-0.4-0.5-0.6-1.1-0.6-1.7c0-0.8,0.3-1.6,0.9-2.1c0.8-0.7,1.9-1,3-1c1.3,0,2.6,0.4,3.3,1.3
	c0.5,0.6,0.8,1.3,0.8,2h-1.1c-0.1-0.5-0.2-0.9-0.5-1.3c-0.5-0.6-1.4-1-2.5-1c-0.9,0-1.5,0.2-2,0.5c-0.5,0.3-0.8,0.9-0.9,1.5
	c0,0.9,0.5,1.6,2.1,1.8l2.1,0.3c2.1,0.3,3,1.7,3,3C164.6,155.3,164.3,156,163.8,156.6z"/>
<path class="st0" d="M172.9,157.6V142h10v1.1h-8.8v5.7h7.7v1.1h-7.7v6.6h8.8v1.1L172.9,157.6z"/>
<path class="st0" d="M192.6,157.6l-3.4-4.9l-3.4,4.9h-1.3l4-5.7l-3.9-5.4h1.3l3.3,4.7l3.4-4.7h1.3l-3.9,5.4l4,5.7H192.6z"/>
<path class="st0" d="M204.3,156.7c-0.8,0.8-1.9,1.2-3,1.1c-1.6,0-3.1-0.9-3.7-2.1v6.2h-1.1v-15.4h1l0.1,1.9c0.6-1.4,2.2-2.2,3.6-2.2
	c1.1,0,2.1,0.3,2.9,1c1.2,1.1,1.8,2.8,1.8,4.7C206,153.9,205.5,155.6,204.3,156.7z M203.5,148.2c-0.6-0.5-1.4-0.8-2.2-0.8
	c-0.8,0-1.6,0.3-2.2,0.9c-1,1-1.4,2.3-1.4,3.8c0,1.6,0.4,2.9,1.4,3.8c0.6,0.6,1.5,0.9,2.3,0.9c0.9,0,1.7-0.3,2.3-1
	c0.9-0.9,1.2-2.3,1.2-3.7C204.9,150.6,204.5,149.1,203.5,148.2L203.5,148.2z"/>
<path class="st0" d="M217.9,152.4h-8.4c0,1.2,0.4,2.4,1.1,3.3c0.7,0.8,1.6,1.2,2.7,1.2c0.9,0,1.8-0.3,2.4-1c0.4-0.4,0.7-1,0.8-1.6
	h1.1c-0.1,0.9-0.6,1.7-1.2,2.3c-0.8,0.8-2,1.3-3.1,1.3c-1.3,0-2.6-0.5-3.5-1.6c-0.9-1.1-1.4-2.5-1.4-4.2c0-1.4,0.2-2.7,1.1-3.9
	c0.8-1.2,2.2-1.9,3.7-1.9c3,0,4.7,2.5,4.7,5.3C218,151.9,217.9,152.1,217.9,152.4z M213.3,147.4c-2.3,0-3.7,1.8-3.7,4h7.3
	C216.8,149.3,215.5,147.4,213.3,147.4L213.3,147.4z"/>
<path class="st0" d="M225.8,147.6c-2.7,0-3.5,2.5-3.5,4.8v5.3h-1.1v-11h1l0.1,2.2c0.5-1.5,2-2.3,3.5-2.3c0.4,0,0.7,0,1.1,0.1v1.1
	C226.5,147.6,226.2,147.6,225.8,147.6z"/>
<path class="st0" d="M229.5,143.6V142h1.5v1.5H229.5z M229.7,157.6v-11h1.2v11L229.7,157.6z"/>
<path class="st0" d="M243.8,152.4h-8.4c0,1.2,0.4,2.4,1.1,3.3c0.7,0.8,1.6,1.2,2.7,1.2c0.9,0,1.8-0.3,2.4-1c0.4-0.4,0.7-1,0.8-1.6
	h1.1c-0.1,0.9-0.6,1.7-1.2,2.3c-0.8,0.8-2,1.3-3.1,1.3c-1.3,0-2.6-0.5-3.5-1.6c-0.9-1.1-1.4-2.5-1.4-4.2c0-1.4,0.2-2.7,1.1-3.9
	c0.8-1.2,2.2-1.9,3.7-1.9c3,0,4.7,2.5,4.7,5.3C243.9,151.9,243.8,152.1,243.8,152.4z M239.2,147.4c-2.3,0-3.7,1.8-3.7,4h7.3
	C242.7,149.3,241.4,147.4,239.2,147.4L239.2,147.4z"/>
<path class="st0" d="M254.7,157.6v-7.2c0-1.9-0.8-3-2.8-3c-2.7,0-3.6,2.3-3.6,4.7v5.5h-1.1v-11h1l0.1,2c0.6-1.4,2.2-2.3,3.7-2.3
	c2.5,0,3.9,1.6,3.9,4v7.2H254.7z"/>
<path class="st0" d="M263.7,157.9c-1.2,0-2.4-0.4-3.2-1.3c-1.1-1.1-1.5-2.6-1.5-4.5c0-1.9,0.4-3.3,1.5-4.5c0.9-0.8,2-1.3,3.2-1.3
	c2.3,0,4,1.5,4.2,3.7h-1.1c-0.2-1.5-1.5-2.7-3.1-2.6c-1.1,0-1.9,0.4-2.4,0.9c-1,1-1.2,2.3-1.2,3.8c0,1.4,0.2,2.7,1.2,3.8
	c0.6,0.6,1.4,0.9,2.4,0.9c1.7,0,2.9-1.2,3.1-2.7h1.2C267.8,156.3,265.9,157.9,263.7,157.9z"/>
<path class="st0" d="M279.7,152.4h-8.4c0,1.2,0.4,2.4,1.1,3.3c0.7,0.8,1.6,1.2,2.7,1.2c0.9,0,1.8-0.3,2.4-1c0.4-0.4,0.7-1,0.8-1.6
	h1.1c-0.1,0.9-0.6,1.7-1.2,2.3c-0.8,0.8-2,1.3-3.1,1.3c-1.3,0-2.6-0.5-3.5-1.6c-0.9-1.1-1.4-2.5-1.4-4.2c0-1.4,0.2-2.7,1.1-3.9
	c0.8-1.2,2.2-1.9,3.7-1.9c3,0,4.7,2.5,4.7,5.3C279.7,151.9,279.7,152.1,279.7,152.4z M275,147.4c-2.3,0-3.7,1.8-3.7,4h7.3
	C278.6,149.3,277.3,147.4,275,147.4L275,147.4z"/>
<path class="st0" d="M290.1,156.6c-0.8,0.9-2.1,1.3-3.6,1.3c-1.5,0-2.8-0.5-3.6-1.4c-0.6-0.6-0.9-1.4-0.9-2.2h1.1
	c0.1,0.6,0.4,1.2,0.8,1.7c0.6,0.6,1.5,0.9,2.6,0.9c1.1,0,2-0.3,2.6-0.8c0.4-0.4,0.6-0.9,0.6-1.4c0-1-0.7-1.8-2-2l-2.1-0.3
	c-0.9-0.1-1.9-0.4-2.5-1.1c-0.4-0.5-0.6-1.1-0.6-1.7c0-0.8,0.3-1.6,0.9-2.1c0.8-0.7,1.9-1,3-1c1.3,0,2.6,0.4,3.3,1.3
	c0.5,0.6,0.8,1.3,0.8,2h-1.1c-0.1-0.5-0.2-0.9-0.5-1.3c-0.5-0.6-1.4-1-2.5-1c-0.9,0-1.5,0.2-2,0.5c-0.5,0.3-0.8,0.9-0.9,1.5
	c0,0.9,0.5,1.6,2.1,1.8l2.1,0.3c2.1,0.3,3,1.7,3,3C290.8,155.3,290.6,156,290.1,156.6z"/>
<g>
	<polygon class="st0" points="286.5,0 242.7,0 172.5,116.5 172.5,116.8 218.3,116.8 286.5,0.3 	"/>
	<path class="st0" d="M226.8,1.8V0h-50l-4.3,41.7h2.4C184.3,20.2,202.8,6.8,226.8,1.8z"/>
	<path class="st0" d="M234.9,114.9l-0.1,1.9l50.5,0.1l5.5-41.8l-2.5-0.1C278.3,96.3,259.2,110.6,234.9,114.9z"/>
	<path class="st0" d="M10.8,0v0.3c3,2.4,13,14.8,14.7,17.9c13.2,23.9,42.4,100.5,42.4,100.5h0.7l20.8-51L61.5,0H10.8z"/>
	<path class="st0" d="M106.9,18.4v78.8c0,11-1.8,13.7-9,19.4v0.3h58.4v-0.3c-7.2-5.7-9-8.4-9-19.4V19.7c0-11,1.8-13.7,9-19.4V0
		h-49.4V18.4z"/>
	<path class="st0" d="M22.7,75.8h-0.9c-2,6.4-10.2,31.8-21.8,40v1h44.6v-1.1C32.9,107.6,24.7,82.2,22.7,75.8z"/>
</g>
</svg>
