<?xml version="1.0" encoding="utf-8"?>
<!-- Generator: Adobe Illustrator 21.1.0, SVG Export Plug-In . SVG Version: 6.00 Build 0)  -->
<svg version="1.1" id="Layer_1" xmlns="http://www.w3.org/2000/svg" xmlns:xlink="http://www.w3.org/1999/xlink" x="0px" y="0px"
	 viewBox="0 0 138 782.9" style="enable-background:new 0 0 138 782.9;" xml:space="preserve">
<style type="text/css">
	.st0{fill:#9A7A6F;}
</style>
<g>
	<path class="st0" d="M106.6,689.2v8.4l-91.7,27.6l91.7,27.6v8.1l-104.7,22v-7.2L95.5,756l-92-27.6v-6.9l92-27.8L1.9,674.4v-7.2
		L106.6,689.2z"/>
	<path class="st0" d="M106.6,595.9H58.3c-12.8,0-20.5,5.6-20.5,19c0,18.2,15.9,24.5,31.9,24.5h36.9v7.4H0v-7.4h46.4
		c-9.4-4.1-15.5-14.6-15.5-24.9c0-17,10.5-26,27-26h48.7V595.9z"/>
	<path class="st0" d="M107,503.2c0,9.2-6.6,11.7-14.5,11.7c10.5,4,15.9,15.2,15.9,26.6c0,14.3-8.6,25.4-22.7,25.4
		c-13.1,0-21-10.2-22-24.8l-1.9-27.2h-7.2c-12.3,0-16.8,8.3-16.8,19.5c0,11.7,5.3,20.5,16.2,21.3v7.4c-14.9-1-23.2-12.7-23.2-28.6
		c0-10,3.4-21,13.6-24.9c4.6-1.8,9.3-1.9,14.2-1.9h33.7c5,0,8-0.7,8-5.8c0-0.9,0-1.3-0.1-2.1h6.5C106.9,501.4,107,501.4,107,503.2z
		 M68.6,514.8l1.6,26.4c0.7,10.9,6.5,18,15.5,18c10.6,0,15.9-8,15.9-18.5c0-18.6-15.1-26-29.2-26H68.6z"/>
	<path class="st0" d="M107.6,456c0,13.7-8.7,19-21.6,19H39.6v14.8h-6.8V475H12.4l-1.8-7.4h22.1v-22.9h6.8v22.9h46.2
		c8.7,0,14.9-2.4,14.9-12.3c0-4-0.6-7.7-1.3-11.7h6.5C106.7,447.8,107.6,451.8,107.6,456z"/>
	<path class="st0" d="M106.6,307.5v8.4l-91.7,27.6l91.7,27.6v8.1l-104.7,22V394l93.6-19.6l-92-27.6v-6.9l92-27.8L1.9,292.7v-7.2
		L106.6,307.5z"/>
	<path class="st0" d="M71.4,209.9v56.4c8.6-0.1,16.5-3,22.1-7.7c4.9-4.1,7.8-9.9,7.8-17.9c0-6.5-2.4-12.1-6.5-16.1
		c-2.8-2.7-6.1-4.7-10.5-5.6v-7.7c6.3,1,11.5,4.1,15.5,8.3c5.3,5.3,8.6,12.7,8.6,21.1c0,10.6-4.4,18.2-10.5,23.5
		c-7.1,6.1-16.8,9.4-28,9.4c-9.3,0-18.5-1.5-26.3-7.2c-8.4-6.2-12.8-14.8-12.8-25.1c0-19.9,17.1-31.6,35.7-31.6
		C68.3,209.7,69.7,209.9,71.4,209.9z M37.8,241.3c0,15.2,12.3,24.8,26.9,24.8v-48.9C50.6,217.6,37.8,226.3,37.8,241.3z"/>
	<path class="st0" d="M96.2,93.6c6.1,6.2,10.3,15.4,10.3,26.4v34.7H1.9V120c0-11.1,4.3-20.2,10.3-26.4
		c11.1-11.5,27.3-12.7,41.9-12.7C68.8,80.9,85.2,82.1,96.2,93.6z M17.3,99.2c-5,5.3-7.8,13-7.8,20.8v27h89.6v-27
		c0-7.8-2.8-15.5-7.8-20.8c-9.4-9.7-24.5-10.5-37.1-10.5C41.6,88.7,26.6,89.4,17.3,99.2z"/>
	<path class="st0" d="M99.6,10.5c5.2,5.2,8.9,12.4,8.9,21.6c0,9.2-3.7,16.4-8.9,21.6c-7.7,7.7-17.4,10.5-30,10.5s-22.3-2.8-30-10.5
		c-5.2-5.2-8.9-12.4-8.9-21.6c0-9.2,3.7-16.4,8.9-21.6C47.4,2.8,57.1,0,69.7,0S92,2.8,99.6,10.5z M44.6,15.8
		c-4,3.8-6.5,9.2-6.5,16.2c0,7.1,2.5,12.4,6.5,16.2c6.9,6.6,15.5,8.3,25.1,8.3c9.6,0,18.2-1.6,25.1-8.3c4-3.8,6.5-9.2,6.5-16.2
		c0-7.1-2.5-12.4-6.5-16.2c-6.9-6.6-15.5-8.3-25.1-8.3C60.1,7.5,51.5,9.2,44.6,15.8z"/>
</g>
</svg>
