<?xml version="1.0" encoding="utf-8"?>
<!-- Generator: Adobe Illustrator 21.1.0, SVG Export Plug-In . SVG Version: 6.00 Build 0)  -->
<svg version="1.1" id="Layer_1" xmlns="http://www.w3.org/2000/svg" xmlns:xlink="http://www.w3.org/1999/xlink" x="0px" y="0px"
	 viewBox="0 0 138 903" style="enable-background:new 0 0 138 903;" xml:space="preserve">
<style type="text/css">
	.st0{fill:#9A7A6F;}
</style>
<g>
	<path class="st0" d="M99.6,834.8c6.3,6.6,10.8,15.7,10.8,27.3c0,11.5-4.5,20.7-10.8,27.3c-11.6,12-29.1,13.3-44.4,13.3
		s-32.7-1.4-44.2-13.3c-6.3-6.6-10.8-15.8-10.8-27.3s4.5-20.7,10.8-27.3c11.5-12,28.9-13.3,44.2-13.3
		C70.5,821.4,88.1,822.8,99.6,834.8z M16.1,840.5c-5.4,5.5-8.2,13.3-8.2,21.6c0,8.2,2.9,16,8.2,21.6c10,10.5,26.5,11,39.1,11
		s29.2-0.5,39.3-11c5.4-5.5,8.2-13.3,8.2-21.6c0-8.2-2.9-16-8.2-21.6c-10.1-10.5-26.7-10.9-39.3-10.9S26.1,830,16.1,840.5z"/>
	<path class="st0" d="M108.3,746.7l-13.6,0.9c9.6,4.2,15.6,14.8,15.6,25.3c0,17.2-10.6,26.4-27.4,26.4H33.3v-7.5h49
		c13,0,20.5-5.7,20.5-19.3c0-18.4-15.9-24.9-32.1-24.9H33.3v-7.5h75V746.7z"/>
	<path class="st0" d="M39.9,679.1c0,18.7,16.8,23.8,32.5,23.8h36v7.5h-75v-6.6l15.1-0.9c-10.3-3.3-15.9-13.3-15.9-23.8
		c0-2.4,0-4.9,0.5-7.3h7.5C40.1,674.1,39.9,676.7,39.9,679.1z"/>
	<path class="st0" d="M108.5,553.8l-28,10.8V616l28,10.5v8.1L2.1,594.3v-7.7l106.3-40.8L108.5,553.8L108.5,553.8z M12.9,590.6
		L73,613.2v-45.7L12.9,590.6z"/>
	<path class="st0" d="M102.6,476.9c4.8,4.9,7.8,11.7,7.8,20.4c0,10.7-6,21-14.5,25h42.6v7.5h-105v-6.6l13.2-0.9
		c-9.3-4-15.1-14.8-15.1-24.9c0-8.5,2.7-15,7-19.9c7.3-8.4,19.3-12.3,32.2-12.3C83.1,465.2,95.1,468.9,102.6,476.9z M44.1,482.7
		c-3.3,3.8-5.2,8.5-5.2,14.8c0,6.6,2.4,11.5,6,15.3c6.6,6.8,15.7,9.6,26.1,9.6c11.1,0,19.8-2.5,26.2-9.4c3.6-3.8,5.8-8.8,5.8-15.8
		s-2.5-12.1-6.6-16c-6.3-5.8-15.9-8.4-25.5-8.4C60.3,472.8,50.3,475.8,44.1,482.7z"/>
	<path class="st0" d="M102.6,390c4.8,4.9,7.8,11.7,7.8,20.4c0,10.7-6,21-14.5,25h42.6v7.5h-105v-6.6l13.2-0.9
		c-9.3-4-15.1-14.8-15.1-24.9c0-8.5,2.7-15,7-19.9c7.3-8.4,19.3-12.3,32.2-12.3C83.1,378.3,95.1,382.1,102.6,390z M44.1,395.9
		c-3.3,3.8-5.2,8.5-5.2,14.8c0,6.6,2.4,11.5,6,15.3c6.6,6.8,15.7,9.6,26.1,9.6c11.1,0,19.8-2.5,26.2-9.4c3.6-3.8,5.8-8.8,5.8-15.8
		s-2.5-12.1-6.6-16c-6.3-5.8-15.9-8.4-25.5-8.4C60.3,386,50.3,389,44.1,395.9z"/>
	<path class="st0" d="M39.9,324c0,18.7,16.8,23.8,32.5,23.8h36v7.5h-75v-6.6l15.1-0.9c-10.3-3.3-15.9-13.3-15.9-23.8
		c0-2.4,0-4.9,0.5-7.3h7.5C40.1,319.1,39.9,321.6,39.9,324z"/>
	<path class="st0" d="M101.4,252.9c5.2,5.2,9,12.6,9,21.9s-3.8,16.6-9,21.9c-7.8,7.8-17.7,10.6-30.4,10.6s-22.6-2.9-30.4-10.6
		c-5.2-5.2-9-12.6-9-21.9s3.8-16.6,9-21.9c7.8-7.8,17.7-10.6,30.4-10.6S93.6,245.1,101.4,252.9z M45.5,258.3
		c-4,3.9-6.6,9.3-6.6,16.5s2.5,12.6,6.6,16.5c7,6.8,15.8,8.4,25.5,8.4s18.4-1.6,25.5-8.4c4-3.9,6.6-9.3,6.6-16.5s-2.5-12.6-6.6-16.5
		c-7-6.8-15.8-8.4-25.5-8.4S52.5,251.6,45.5,258.3z"/>
	<path class="st0" d="M108.9,160.5c0,9.3-6.8,11.8-14.7,11.8c10.7,4,16.2,15.4,16.2,27c0,14.5-8.7,25.8-23.1,25.8
		C74,225.2,66,214.8,65,200l-2-27.6h-7.3c-12.4,0-17.1,8.4-17.1,19.8c0,11.8,5.4,20.8,16.5,21.6v7.5c-15.1-1-23.5-12.9-23.5-29.1
		c0-10.2,3.4-21.3,13.8-25.3c4.7-1.8,9.5-2,14.4-2H94c5.1,0,8.1-0.8,8.1-5.8c0-0.9,0-1.4-0.1-2.1h6.6
		C108.8,158.7,108.9,158.7,108.9,160.5z M69.9,172.4l1.7,26.8c0.8,11.1,6.6,18.3,15.7,18.3c10.8,0,16.2-8.1,16.2-18.7
		c0-18.9-15.3-26.4-29.7-26.4L69.9,172.4L69.9,172.4z"/>
	<path class="st0" d="M110.4,108.8c0,9.3-3.6,16.8-8.8,22c-7.8,7.8-17.8,10.5-30.6,10.5s-22.8-2.7-30.6-10.5
		c-5.2-5.2-8.8-12.7-8.8-22c0-15.6,10.2-27.1,25.3-28.9v7.8c-10.3,1.7-18,9.8-18,21.1c0,7.2,2.4,12.7,6.4,16.6
		c7.1,6.8,15.9,8.2,25.6,8.2s18.7-1.5,25.8-8.2c4-3.9,6.3-9.5,6.3-16.6c0-11.5-8.1-19.5-18.3-21.3v-8
		C99.3,81.5,110.4,93,110.4,108.8z"/>
	<path class="st0" d="M108.5,7.4h-49c-13,0-20.8,5.7-20.8,19.3c0,18.4,16.2,24.9,32.4,24.9h37.5v7.5H0.2v-7.5h47.1
		c-9.6-4.2-15.8-14.8-15.8-25.3C31.5,9,42.2-0.1,59-0.1h49.5V7.4z"/>
</g>
</svg>
